<?xml version="1.0" encoding="UTF-8"?>
<svg id="Camada_2" data-name="Camada 2" xmlns="http://www.w3.org/2000/svg" viewBox="0 0 700 900">
    <defs>
        <style>
            .cls-1 {
            fill: none;
            }

            .cls-2 {
            fill: #232e61;
            }

            .cls-3 {
            opacity: .04;
            }

            .cls-4 {
            clip-path: url(#clippath);
            }
        </style>
        <clipPath id="clippath">
            <rect class="cls-1" x="5.02" y=".07" width="689.81" height="899.93" rx="29.78" ry="29.78"/>
        </clipPath>
    </defs>
    <g class="cls-4">
        <g class="cls-3">
            <g>
                <path class="cls-2"
                      d="M24.91,555.27l24.22-24.22v-81.39l23.69-23.69v-40.48c4.58-.82,8.05-4.8,8.05-9.62,0-5.41-4.38-9.79-9.79-9.79s-9.79,4.38-9.79,9.79c0,4.81,3.48,8.8,8.05,9.62v39.03l-21.95,21.95-17.99-17.99v-42.99c4.58-.82,8.05-4.8,8.05-9.62,0-5.41-4.38-9.79-9.79-9.79s-9.79,4.38-9.79,9.79c0,4.81,3.48,8.79,8.05,9.62v44.43l19.73,19.73v79.96l-21.75,21.75-70.24-70.24v-100.78l26.51-26.51v-109.08c4.58-.82,8.05-4.8,8.05-9.62,0-5.41-4.38-9.79-9.79-9.79s-9.79,4.38-9.79,9.79c0,4.81,3.48,8.79,8.05,9.62v107.64l-24.77,24.77-36.33-36.33v-44.09l34.01-34.01v-106.9L4.54,100.9c1.57,1.09,3.48,1.74,5.54,1.74,5.38,0,9.74-4.36,9.74-9.74s-4.36-9.74-9.74-9.74S.34,87.52.34,92.9c0,2.06.65,3.97,1.74,5.54l-55.96,55.96v106.9l-30.53,30.53v-141.75c5.53-.85,9.79-5.59,9.79-11.36,0-6.36-5.17-11.53-11.53-11.53s-11.53,5.17-11.53,11.53c0,5.76,4.26,10.51,9.79,11.36v102.62l-40.26-40.26v-97.06c4.55-.82,8-4.78,8-9.56,0-5.38-4.36-9.74-9.74-9.74s-9.74,4.36-9.74,9.74c0,4.78,3.45,8.74,8,9.56v98.5l43.74,43.74v84.66l38.07,38.07v97.31l-29.95-29.95v-51.82l-54.5-54.5v-73.41c4.55-.82,8-4.78,8-9.56,0-5.38-4.36-9.74-9.74-9.74s-9.74,4.36-9.74,9.74c0,4.78,3.45,8.74,8,9.56v69.93l-32.32-32.32v-38.2l-26.73-26.73v-67.6c4.55-.82,8-4.78,8-9.56,0-5.38-4.36-9.74-9.74-9.74s-9.74,4.36-9.74,9.74c0,4.78,3.45,8.74,8,9.56v69.04l26.73,26.73v33.29l-88.19-88.19c1.1-1.58,1.76-3.5,1.76-5.58,0-5.41-4.38-9.79-9.79-9.79s-9.79,4.38-9.79,9.79,4.38,9.79,9.79,9.79c2.08,0,3.99-.66,5.58-1.76l68.6,68.6h-56.26l-25.59-25.59c1.09-1.57,1.74-3.48,1.74-5.54,0-5.38-4.36-9.74-9.74-9.74s-9.74,4.36-9.74,9.74,4.36,9.74,9.74,9.74c2.06,0,3.97-.65,5.54-1.74l24.87,24.87-24.7,24.7c-1.57-1.09-3.48-1.74-5.54-1.74-5.38,0-9.74,4.36-9.74,9.74s4.36,9.74,9.74,9.74,9.74-4.36,9.74-9.74c0-2.06-.65-3.96-1.74-5.54l25.42-25.42h59.73l108.87,108.87v46.9l-40.45-40.45c1.09-1.57,1.74-3.48,1.74-5.54,0-5.38-4.36-9.74-9.74-9.74s-9.74,4.36-9.74,9.74,4.36,9.74,9.74,9.74c2.06,0,3.97-.65,5.54-1.74l43.42,43.42,104.16,104.16v62.18l238.37,238.37v459.87h3.48v-461.31L24.91,614.56v-59.29ZM-94.2,138.73c0-4.44,3.61-8.05,8.05-8.05s8.05,3.61,8.05,8.05-3.61,8.05-8.05,8.05-8.05-3.61-8.05-8.05Z"/>
                <path class="cls-1"
                      d="M-43.9,597.34l-108.03-108.03v-56.12l-30.49-30.49v-16.53c5.53-.85,9.79-5.6,9.79-11.36,0-6.36-5.17-11.53-11.53-11.53s-11.53,5.17-11.53,11.53c0,5.76,4.26,10.51,9.79,11.36v17.97l30.49,30.49v53.66h-32.12l-32.02-32.02c1.1-1.58,1.76-3.5,1.76-5.58,0-5.41-4.38-9.79-9.79-9.79s-9.79,4.38-9.79,9.79,4.39,9.79,9.79,9.79c2.08,0,3.99-.66,5.58-1.76l33.03,33.04h34.58l68.11,68.11h-42.7l-24.24-24.24c1.09-1.57,1.74-3.48,1.74-5.54,0-5.38-4.36-9.74-9.74-9.74s-9.74,4.36-9.74,9.74,4.36,9.74,9.74,9.74c2.06,0,3.97-.65,5.54-1.74l25.25,25.25h47.61l37.46,37.46H-3.98l258.18,258.18v455.24h3.48v-456.68L-2.54,597.34h-41.36ZM-192.2,374.82c0-4.44,3.61-8.05,8.05-8.05s8.06,3.61,8.06,8.05-3.61,8.06-8.06,8.06-8.05-3.61-8.05-8.06Z"/>
                <path class="cls-1"
                      d="M22.32,704.72l-58.81-58.81h-141.19c-.82-4.57-4.81-8.05-9.62-8.05-5.41,0-9.79,4.38-9.79,9.79s4.38,9.79,9.79,9.79c4.81,0,8.79-3.48,9.62-8.06H-41.41l-19.02,19.03h-164.73c-.82-4.58-4.81-8.06-9.62-8.06-5.41,0-9.79,4.38-9.79,9.79s4.38,9.79,9.79,9.79c4.81,0,8.79-3.48,9.62-8.05H-59l21.78-21.78,33.32,33.32h-192.48l-17.42,17.42c-1.58-1.1-3.5-1.76-5.58-1.76-5.41,0-9.79,4.38-9.79,9.79s4.38,9.8,9.79,9.8,9.79-4.38,9.79-9.8c0-2.07-.66-3.99-1.76-5.58l16.4-16.4H-.42l21.29,21.29h72.29l155.44,155.44v450.6h3.48v-452.04l-157.48-157.48H22.32Z"/>
                <path class="cls-2"
                      d="M81.59,769.49l-34.54-34.54h-112.25c-.82-4.54-4.78-8-9.56-8-5.38,0-9.74,4.36-9.74,9.74s4.36,9.74,9.74,9.74c4.78,0,8.74-3.45,9.56-8H45.62l31.06,31.06H-114.34l-38.9-38.9c1.1-1.58,1.76-3.5,1.76-5.58,0-5.41-4.38-9.79-9.79-9.79s-9.79,4.38-9.79,9.79,4.38,9.79,9.79,9.79c2.08,0,3.99-.65,5.58-1.76l39.92,39.92H23.54l-31.44,31.44h-92.06c-.82-4.54-4.78-8-9.56-8-5.38,0-9.74,4.36-9.74,9.74s4.36,9.74,9.74,9.74c4.78,0,8.74-3.45,9.56-8H-6.47l34.92-34.92h119.24l95.31,95.31v445.96h3.48v-447.4l-97.35-97.35h-67.54Z"/>
                <path class="cls-2"
                      d="M100.12,831.27l-26.1-26.1c1.09-1.57,1.74-3.48,1.74-5.54,0-5.38-4.36-9.74-9.74-9.74s-9.74,4.36-9.74,9.74,4.36,9.74,9.74,9.74c2.06,0,3.96-.65,5.54-1.74l23.64,23.64H-29.48l-11.98-11.98h-186.86l-13.92-13.92c.15-.2.34-.36.47-.57,2.19-3.41,2.41-7.61.62-11.51-1.02-2.22-2.81-4.02-5.05-5.04-5.55-2.55-11.91-.71-15.01,4.12-2.19,3.41-2.41,7.61-.62,11.51,1.02,2.22,2.81,4.01,5.04,5.04,1.73.79,3.51,1.2,5.29,1.2,2.5,0,4.83-.87,6.77-2.3l14.95,14.95H-42.9l10.24,10.24-28.76,28.76h-111.32l-15.75,15.75c-1.58-1.1-3.5-1.76-5.58-1.76-5.41,0-9.79,4.38-9.79,9.79s4.38,9.79,9.79,9.79,9.79-4.38,9.79-9.79c0-2.08-.66-3.99-1.76-5.58l14.73-14.73h69.76l-22.61,22.61c-1.57-1.09-3.48-1.74-5.54-1.74-5.38,0-9.74,4.36-9.74,9.74s4.36,9.74,9.74,9.74,9.74-4.36,9.74-9.74c0-2.06-.65-3.96-1.74-5.54l25.07-25.06h36.64l30.5-30.5H126.99l-48.45,48.45H23.75c-.82-4.54-4.78-8-9.56-8-5.38,0-9.74,4.36-9.74,9.74s4.36,9.74,9.74,9.74c4.78,0,8.74-3.45,9.56-8h56.24l51.93-51.93h67.35l38.16,38.16v441.32h3.48v-442.76l-40.2-40.2h-100.57ZM-255.32,805.77c-1.46-.67-2.67-1.89-3.34-3.34-1.29-2.8-1.15-5.78.39-8.18,1.49-2.33,4.03-3.72,6.79-3.72,1.28,0,2.57.3,3.84.88,1.46.67,2.67,1.89,3.34,3.34,1.29,2.8,1.15,5.78-.39,8.18-2.19,3.41-6.63,4.67-10.63,2.84Z"/>
                <path class="cls-1"
                      d="M637.93,637.76l104.16-104.16,54.68-54.68c1.59,1.1,3.5,1.76,5.58,1.76,5.41,0,9.79-4.38,9.79-9.79s-4.38-9.79-9.79-9.79-9.79,4.38-9.79,9.79c0,2.08.66,3.99,1.76,5.58l-51.71,51.71v-74.88l33.36-33.36h88.53l10.21-10.21c1.57,1.09,3.48,1.74,5.54,1.74,5.38,0,9.74-4.36,9.74-9.74s-4.36-9.74-9.74-9.74-9.74,4.36-9.74,9.74c0,2.06.65,3.97,1.74,5.54l-9.19,9.19h-83.61l62.07-62.07h49.06l23.03-23.03c1.57,1.09,3.48,1.74,5.54,1.74,5.38,0,9.74-4.36,9.74-9.74s-4.36-9.74-9.74-9.74-9.74,4.36-9.74,9.74c0,2.06.65,3.97,1.74,5.54l-22.01,22.01h-44.14l64.33-64.33c1.58,1.1,3.5,1.76,5.58,1.76,5.41,0,9.79-4.38,9.79-9.79s-4.38-9.79-9.79-9.79-9.79,4.38-9.79,9.79c0,2.08.66,3.99,1.76,5.58l-66.78,66.78h-.02v.02l-38.91,38.91v-38.87c4.54-.82,8-4.78,8-9.56,0-5.38-4.36-9.74-9.74-9.74s-9.74,4.36-9.74,9.74c0,4.78,3.45,8.74,8,9.56v42.34l-58.54,58.54v33.99l-31.11-31.1c1.1-1.58,1.76-3.5,1.76-5.58,0-5.41-4.38-9.79-9.79-9.79s-9.79,4.38-9.79,9.79,4.38,9.79,9.79,9.79c2.08,0,3.99-.66,5.58-1.76l33.57,33.56v40.9l-104.67,104.67v62.18l-238.37,238.37v377.37h3.48v-375.93l238.37-238.37v-62.18Z"/>
                <path class="cls-2"
                      d="M697.83,732.8l58.81-58.81h92.49l29.58,29.58c-1.09,1.58-1.74,3.48-1.74,5.54,0,5.38,4.36,9.74,9.74,9.74s9.74-4.36,9.74-9.74-4.36-9.74-9.74-9.74c-2.06,0-3.96.65-5.54,1.74l-27.12-27.12h100.17l31.09-31.09c1.57,1.09,3.48,1.74,5.54,1.74,5.38,0,9.74-4.36,9.74-9.74s-4.36-9.74-9.74-9.74-9.74,4.36-9.74,9.74c0,2.06.65,3.96,1.74,5.54l-30.07,30.07h-146.9l25.06-25.06h76.61c.82,4.54,4.78,8,9.56,8,5.38,0,9.74-4.36,9.74-9.74s-4.36-9.74-9.74-9.74c-4.78,0-8.74,3.45-9.56,8h-78.05l-28.54,28.54h-45.76l-58.81,58.81h-72.29l-216.82,216.82v368.09h3.48v-366.65l214.78-214.78h72.29Z"/>
                <path class="cls-2"
                      d="M708.81,784.13l45.5-45.5,32.61,32.61h68.28c.83,4.58,4.81,8.06,9.62,8.06,5.41,0,9.79-4.38,9.79-9.79s-4.38-9.79-9.79-9.79c-4.82,0-8.8,3.48-9.62,8.05h-66.84l-29.85-29.85h181.53l28.73,28.73c-1.09,1.57-1.74,3.48-1.74,5.54,0,5.38,4.36,9.74,9.74,9.74s9.74-4.36,9.74-9.74-4.36-9.74-9.74-9.74c-2.06,0-3.97.65-5.54,1.74l-28.01-28.01,31.59-31.59c1.91,1.41,4.25,2.27,6.81,2.27,6.36,0,11.53-5.17,11.53-11.53s-5.17-11.53-11.53-11.53-11.53,5.17-11.53,11.53c0,2.55.86,4.89,2.27,6.81l-32.31,32.31h-186.45l-46.22,46.22h-124.36l-170.13,170.13v363.46h3.48v-362.01l168.09-168.09h124.36ZM981.61,687.27c4.44,0,8.06,3.61,8.06,8.05s-3.61,8.06-8.06,8.06-8.06-3.61-8.06-8.06,3.61-8.05,8.06-8.05Z"/>
                <path class="cls-2"
                      d="M229.95,433.82l-30.29-30.29,23.77-23.77v-46.6c4.58-.82,8.05-4.8,8.05-9.62,0-5.41-4.38-9.79-9.79-9.79s-9.79,4.38-9.79,9.79c0,4.81,3.48,8.8,8.06,9.62v45.16l-21.01,21.01v-198.08c5.53-.85,9.79-5.59,9.79-11.36,0-6.36-5.17-11.53-11.53-11.53s-11.53,5.17-11.53,11.53c0,5.77,4.26,10.51,9.8,11.36v86.85l-22.99-22.99v-128.89l32.12-32.12V1.68c4.55-.82,8-4.78,8-9.56,0-5.38-4.36-9.74-9.74-9.74s-9.74,4.36-9.74,9.74c0,4.78,3.45,8.74,8,9.56v100.98l-28.64,28.64V59.6c4.58-.82,8.05-4.8,8.05-9.62,0-5.41-4.38-9.79-9.79-9.79s-9.79,4.38-9.79,9.79c0,4.81,3.48,8.8,8.05,9.62v206.95l26.46,26.46v111.23l31.01,31.01v132.93l65.77,65.77v680.28h3.48v-681.72l-65.77-65.77v-132.93ZM189.14,189.89c0-4.44,3.61-8.06,8.06-8.06s8.05,3.61,8.05,8.06-3.61,8.05-8.05,8.05-8.06-3.61-8.06-8.05Z"/>
                <path class="cls-2"
                      d="M278.07,430.59l54.99-54.99v-56.04l-25.32-25.32v-54.35c4.58-.82,8.05-4.8,8.05-9.62,0-5.41-4.38-9.79-9.79-9.79s-9.79,4.38-9.79,9.79c0,4.81,3.48,8.8,8.05,9.62v55.79l25.32,25.32v53.16l-53.25,53.25-16.94-16.94v-146.84l16.6-16.6v-58.95l60.53-60.53c1.91,1.41,4.25,2.27,6.8,2.27,6.36,0,11.53-5.17,11.53-11.53s-5.17-11.53-11.53-11.53-11.53,5.17-11.53,11.53c0,2.55.86,4.89,2.27,6.8l-61.55,61.55v58.95l-14.87,14.87-23.59-23.59v-108.91l57.93-57.93c1.57,1.09,3.48,1.74,5.54,1.74,5.38,0,9.74-4.36,9.74-9.74s-4.36-9.74-9.74-9.74-9.74,4.36-9.74,9.74c0,2.06.65,3.97,1.74,5.54l-55.47,55.47V42.97l32.39-32.39v-119.52c4.54-.82,8-4.78,8-9.56,0-5.38-4.36-9.74-9.74-9.74s-9.74,4.36-9.74,9.74c0,4.78,3.45,8.74,8,9.56V9.15l-28.91,28.91V-40.38l-30.43-30.43c1.09-1.57,1.74-3.48,1.74-5.54,0-5.38-4.36-9.74-9.74-9.74s-9.74,4.36-9.74,9.74,4.36,9.74,9.74,9.74c2.06,0,3.97-.65,5.54-1.74l29.41,29.41V126.51l-.33.33.33.33v111.12l25.33,25.33v148.28l18.68,18.68v147.5l23.24,23.24v712.9h3.48v-714.34l-23.24-23.24v-146.06ZM343.33,110.23c4.44,0,8.06,3.61,8.06,8.06s-3.61,8.05-8.06,8.05-8.05-3.61-8.05-8.05,3.61-8.06,8.05-8.06Z"/>
                <path class="cls-2"
                      d="M330.77,652.58l13.07-13.07c1.59,1.1,3.5,1.76,5.58,1.76,5.41,0,9.79-4.39,9.79-9.79s-4.38-9.79-9.79-9.79-9.79,4.38-9.79,9.79c0,2.08.66,3.99,1.76,5.58l-10.61,10.61v-60.37l23.98-23.98v-107.11l-25.35-25.35c1.1-1.58,1.76-3.5,1.76-5.58,0-5.41-4.38-9.79-9.79-9.79s-9.79,4.38-9.79,9.79,4.38,9.79,9.79,9.79c2.08,0,3.99-.66,5.58-1.76l24.33,24.33v104.23l-20.5,20.5v-81.35l-27.53-27.52c1.1-1.58,1.76-3.5,1.76-5.58,0-5.41-4.38-9.79-9.79-9.79s-9.79,4.38-9.79,9.79,4.39,9.79,9.79,9.79c2.08,0,3.99-.66,5.58-1.76l26.51,26.51v79.91l-28.14-28.14c1.1-1.58,1.76-3.5,1.76-5.58,0-5.41-4.38-9.79-9.79-9.79s-9.79,4.38-9.79,9.79,4.38,9.79,9.79,9.79c2.07,0,3.99-.65,5.58-1.76l30.6,30.6v124.01l-23.86,23.86v579.07h3.48v-577.63l23.86-23.86v-60.16Z"/>
                <path class="cls-2"
                      d="M334.31,751.45l24.07-24.07v-62.9l26.38-26.38v-185.12l19.84-19.83v-52.8l33.61-33.61v-145.54l-21.99-21.99v-20.39c4.57-.82,8.05-4.8,8.05-9.62,0-5.41-4.38-9.79-9.79-9.79s-9.79,4.38-9.79,9.79c0,4.81,3.48,8.79,8.06,9.62v21.83l21.99,21.99v142.66l-30.13,30.13v-24.62l-33.39-33.39v-7.89l28.22-28.23v-52.33c4.58-.82,8.06-4.8,8.06-9.62,0-5.41-4.38-9.79-9.79-9.79s-9.79,4.38-9.79,9.79c0,4.81,3.48,8.79,8.05,9.62v50.89l-24.75,24.75v-144.13c4.57-.82,8.05-4.81,8.05-9.62,0-5.41-4.38-9.79-9.79-9.79s-9.79,4.39-9.79,9.79c0,4.81,3.48,8.79,8.06,9.62v158.37l33.39,33.39v79.46l-19.84,19.83v185.12l-26.38,26.38v62.9l-24.07,24.07v42.66l-21.81,21.81v499.76h3.48v-498.32l21.81-21.81v-42.66Z"/>
                <path class="cls-2"
                      d="M400.72,813.73l42.04-42.04v-157.54l40.68-40.68v-158.01l25.95-25.95v-65.72l48.5-48.5V70.24l33.54-33.54c1.58,1.09,3.48,1.74,5.54,1.74,5.38,0,9.74-4.36,9.74-9.74s-4.36-9.74-9.74-9.74-9.74,4.36-9.74,9.74c0,2.06.65,3.97,1.74,5.54l-34.56,34.56v92.26l-43.9-43.9V-84.18c4.54-.82,8-4.78,8-9.56,0-5.38-4.36-9.74-9.74-9.74s-9.74,4.36-9.74,9.74c0,4.78,3.45,8.74,8,9.56V28.42l-37.63-37.64v-43.17c4.54-.82,8-4.78,8-9.56,0-5.38-4.36-9.74-9.74-9.74s-9.74,4.36-9.74,9.74c0,4.78,3.45,8.74,8,9.56V-7.77l41.11,41.11v85.26l47.37,47.37v107.88l-48.5,48.5v65.72l-22.47,22.47v-131.99l23.06-23.06v-56.98c5.53-.85,9.79-5.59,9.79-11.36,0-6.36-5.17-11.53-11.53-11.53s-11.53,5.17-11.53,11.53c0,5.76,4.26,10.51,9.79,11.36v55.54l-21.32,21.32-26.05-26.05V86.65c4.58-.82,8.06-4.8,8.06-9.62,0-5.41-4.38-9.79-9.79-9.79s-9.79,4.38-9.79,9.79c0,4.81,3.48,8.79,8.05,9.62v164.12l27.79,27.79v293.47l-40.68,40.68v157.54l-42.04,42.04v77.29l-37.37,37.37v387.29h3.48v-385.85l37.37-37.37v-77.29ZM496.7,187.16c0-4.44,3.61-8.05,8.06-8.05s8.05,3.61,8.05,8.05-3.61,8.05-8.05,8.05-8.06-3.61-8.06-8.05Z"/>
                <path class="cls-2"
                      d="M474.03,699.22l50.96-50.96v-95.67l27.09-27.09v-34.04c4.57-.82,8.05-4.81,8.05-9.62,0-5.41-4.38-9.79-9.79-9.79s-9.79,4.38-9.79,9.79c0,4.81,3.48,8.8,8.06,9.62v32.6l-23.61,23.61v-76.6l45.02-45.02v-40.55c4.58-.82,8.06-4.8,8.06-9.62,0-5.41-4.38-9.79-9.79-9.79s-9.79,4.38-9.79,9.79c0,4.81,3.48,8.79,8.05,9.62v35.63l-27.91-27.91v-52.81c4.58-.82,8.06-4.8,8.06-9.62,0-5.41-4.38-9.79-9.79-9.79s-9.79,4.38-9.79,9.79c0,4.81,3.48,8.79,8.05,9.62v54.25l30.67,30.67-44.3,44.3v177.18l-50.96,50.96v128.73l-105.08,105.08v382.65h3.48v-381.21l105.08-105.08v-128.73Z"/>
                <path class="cls-2"
                      d="M514.23,748.42l47.39-47.39v-77.33l50.66-50.66v-225.79l42.44-42.43v-70.58l23.37-23.37V18.16c4.58-.82,8.06-4.81,8.06-9.62,0-5.41-4.38-9.79-9.79-9.79s-9.79,4.39-9.79,9.79c0,4.81,3.48,8.79,8.05,9.62v117.04l-57.64-57.64c1.09-1.57,1.74-3.48,1.74-5.54,0-5.38-4.36-9.74-9.74-9.74s-9.74,4.36-9.74,9.74,4.36,9.74,9.74,9.74c2.06,0,3.96-.65,5.54-1.74l60.1,60.11v69.32l-21.63,21.63-48.26-48.26c1.1-1.58,1.76-3.5,1.76-5.58,0-5.41-4.38-9.79-9.79-9.79s-9.79,4.39-9.79,9.79,4.38,9.79,9.79,9.79c2.08,0,3.99-.66,5.58-1.76l48.98,48.98v69.14l-40.7,40.69-25.95-25.95v-50.27c4.57-.82,8.06-4.8,8.06-9.62,0-5.41-4.38-9.79-9.79-9.79s-9.79,4.38-9.79,9.79c0,4.81,3.48,8.8,8.06,9.62v51.71l27.69,27.69v224.35l-50.66,50.66v77.33l-47.39,47.39v49.55l-139.69,139.68v378.02h3.48v-376.58l139.69-139.68v-49.55Z"/>
                <path class="cls-2"
                      d="M581.32,652.95l87.65-87.65v-129.11l178.8-178.8h0l.13-.13.38-.38h0l29.01-29.01c1.9,1.4,4.23,2.25,6.77,2.25,6.33,0,11.48-5.15,11.48-11.48s-5.15-11.48-11.48-11.48-11.48,5.15-11.48,11.48c0,2.54.85,4.86,2.25,6.76l-26.55,26.55v-91.21c4.57-.82,8.05-4.81,8.05-9.62,0-5.41-4.38-9.79-9.79-9.79s-9.79,4.38-9.79,9.79c0,4.81,3.48,8.8,8.06,9.62v94.69l-47.27,47.27v-72.02c4.54-.82,8-4.78,8-9.56,0-5.38-4.36-9.74-9.74-9.74s-9.74,4.36-9.74,9.74c0,4.78,3.45,8.74,8,9.56v75.5l-37.9,37.89-28.78-28.78v-76.59c4.54-.82,8-4.78,8-9.56,0-5.38-4.36-9.74-9.74-9.74s-9.74,4.36-9.74,9.74c0,4.78,3.45,8.74,8,9.56v78.03l29.8,29.8-84.73,84.72v-43.12l30.93-30.93V85.53l17.77-17.77c1.58,1.1,3.5,1.76,5.58,1.76,5.41,0,9.79-4.38,9.79-9.79s-4.38-9.79-9.79-9.79-9.79,4.38-9.79,9.79c0,2.08.66,3.99,1.76,5.58l-18.79,18.79v271.69l-30.93,30.93v129.44l-28.55-28.55v-63.64c5.53-.85,9.79-5.59,9.79-11.36,0-6.36-5.17-11.53-11.53-11.53s-11.53,5.17-11.53,11.53c0,5.76,4.26,10.51,9.79,11.36v65.08l32.03,32.03v42.79l-87.65,87.65v88.16l-201.19,201.19v373.38h3.48v-371.94l201.19-201.19v-88.16ZM884.05,210.65c4.41,0,8,3.59,8,8s-3.59,8-8,8-8-3.59-8-8,3.59-8,8-8ZM627.15,412.6c0-4.44,3.61-8.06,8.06-8.06s8.06,3.61,8.06,8.06-3.61,8.05-8.06,8.05-8.06-3.61-8.06-8.05Z"/>
                <path class="cls-2"
                      d="M357.51,756l43.75-43.75v-139.09l46.27-46.28v-123.23c4.57-.82,8.06-4.81,8.06-9.62,0-5.41-4.39-9.79-9.79-9.79s-9.79,4.38-9.79,9.79c0,4.81,3.48,8.79,8.06,9.62v118.31l-23.97-23.97v-33.44c5.53-.85,9.79-5.59,9.79-11.36,0-6.36-5.17-11.53-11.53-11.53s-11.53,5.17-11.53,11.53c0,5.76,4.26,10.51,9.79,11.36v34.88l26.72,26.73-45.55,45.56v139.09l-43.75,43.75v121.81l-22.6,22.6v415.27h3.48v-413.83l22.6-22.6v-121.81ZM410.3,453.19c0-4.44,3.61-8.06,8.06-8.06s8.05,3.61,8.05,8.06-3.61,8.05-8.05,8.05-8.06-3.61-8.06-8.05Z"/>
                <path class="cls-2"
                      d="M363.11,813.28l62.69-62.69v-163.22l35.07-35.07v-72.47c4.58-.82,8.06-4.8,8.06-9.62,0-5.41-4.38-9.79-9.79-9.79s-9.79,4.38-9.79,9.79c0,4.81,3.48,8.79,8.05,9.62v71.03l-35.07,35.07v163.22l-62.69,62.69v69.17l-22.6,22.6v410.64h3.48v-409.2l22.6-22.6v-69.17Z"/>
                <path class="cls-2"
                      d="M238.35,652.23v-37.59c4.58-.83,8.05-4.81,8.05-9.62,0-5.41-4.38-9.79-9.79-9.79s-9.79,4.38-9.79,9.79c0,4.81,3.48,8.79,8.05,9.62v33.39l-28.94-28.94v-57.64c4.58-.82,8.06-4.8,8.06-9.62,0-5.41-4.39-9.79-9.79-9.79s-9.79,4.38-9.79,9.79c0,4.82,3.48,8.8,8.05,9.62v59.08l32.42,32.42v40.89l-42.33-42.33v-117.89l-35.46-35.46v-168.04c4.6-.8,8.11-4.79,8.11-9.62,0-5.41-4.38-9.79-9.79-9.79s-9.79,4.39-9.79,9.79c0,4.79,3.45,8.77,8,9.61v102.09l-13.72-13.72c1.1-1.58,1.76-3.5,1.76-5.58,0-5.41-4.38-9.79-9.79-9.79s-9.79,4.38-9.79,9.79,4.39,9.79,9.79,9.79c2.08,0,3.99-.66,5.58-1.76l16.18,16.18v62.48l35.46,35.46v112.97l-43.73-43.73v-37.99l11.8-11.8v-10.56c4.58-.82,8.05-4.81,8.05-9.62,0-5.41-4.38-9.79-9.79-9.79s-9.79,4.39-9.79,9.79c0,4.81,3.48,8.8,8.05,9.62v9.12l-11.8,11.8v35.95l-24.3-24.3v-217.75l12.59-12.59V110.6c4.58-.82,8.05-4.8,8.05-9.62,0-5.41-4.38-9.79-9.79-9.79s-9.79,4.38-9.79,9.79c0,4.81,3.48,8.8,8.05,9.62v234.14l-10.85,10.85-63.3-63.3,36.65-36.65v-64.77c4.58-.82,8.05-4.81,8.05-9.62,0-5.41-4.38-9.79-9.79-9.79s-9.79,4.38-9.79,9.79c0,4.81,3.48,8.8,8.05,9.62v63.33l-33.89,33.89v-65.3c5.53-.85,9.79-5.59,9.79-11.36,0-6.36-5.17-11.53-11.53-11.53s-11.53,5.17-11.53,11.53c0,5.76,4.26,10.51,9.79,11.36v70.22l65.76,65.76v219.19l172.56,172.56v563.72h3.48v-565.16l-51.77-51.77v-45.09ZM42.01,211.44c0-4.44,3.61-8.06,8.05-8.06s8.06,3.61,8.06,8.06-3.61,8.05-8.06,8.05-8.05-3.61-8.05-8.05Z"/>
                <path class="cls-2"
                      d="M90.22,588.34v-60.13c5.53-.85,9.79-5.59,9.79-11.36,0-6.36-5.17-11.53-11.53-11.53s-11.53,5.17-11.53,11.53c0,5.76,4.26,10.51,9.79,11.36v58.69l-15.74,15.74v-120.08l31.39-31.39v-65.68c4.58-.82,8.05-4.81,8.05-9.62,0-5.41-4.38-9.79-9.79-9.79s-9.79,4.38-9.79,9.79c0,4.81,3.48,8.8,8.06,9.62v64.24l-31.39,31.39v126.43l205.12,205.12v501.56h3.48v-503l-204.4-204.4,18.5-18.5ZM80.43,516.86c0-4.44,3.61-8.05,8.06-8.05s8.05,3.61,8.05,8.05-3.61,8.05-8.05,8.05-8.06-3.61-8.06-8.05Z"/>
                <path class="cls-1"
                      d="M1000.79,515.34c-5.41,0-9.79,4.38-9.79,9.79,0,2.08.66,3.99,1.76,5.58l-35.36,35.35v-51.15c4.54-.82,8-4.78,8-9.56,0-5.38-4.36-9.74-9.74-9.74s-9.74,4.36-9.74,9.74c0,4.78,3.45,8.74,8,9.56v54.63l-40.48,40.48h-77.45l42.49-42.49v-32.83c4.54-.82,8-4.78,8-9.56,0-5.38-4.36-9.74-9.74-9.74s-9.74,4.36-9.74,9.74c0,4.78,3.45,8.74,8,9.56v31.39l-43.93,43.93h-54.1v-36.87l98.34-98.34h71.26l39.79-39.79c1.58,1.09,3.48,1.74,5.54,1.74,5.38,0,9.74-4.36,9.74-9.74s-4.36-9.74-9.74-9.74-9.74,4.36-9.74,9.74c0,2.06.65,3.97,1.74,5.54l-38.78,38.77h-66.34l35.14-35.14c2.21,1.38,4.57,2.13,6.94,2.13,4.42,0,8.38-2.46,10.34-6.42,2.07-4.17,1.4-9.16-1.78-13.34l-.33-.33c-2.55-1.95-5.4-2.98-8.23-2.98-4.42,0-8.38,2.46-10.34,6.42-1.86,3.76-1.49,8.17.93,12.07l-137.96,137.96v39.33l-67.79,67.79v-52.83l40.83-40.83v-23.69c4.58-.82,8.06-4.81,8.06-9.62,0-5.41-4.38-9.79-9.79-9.79s-9.79,4.38-9.79,9.79c0,4.81,3.48,8.8,8.06,9.62v22.25l-40.83,40.83v56.73h-40.34l-260.22,260.22v372.73h3.48v-371.29l258.18-258.18h41.36l71.26-71.26h138.92l80.33-80.33c1.58,1.1,3.5,1.76,5.58,1.76,5.41,0,9.79-4.38,9.79-9.79s-4.38-9.79-9.79-9.79ZM913.66,423.22c2.25-4.56,8.33-5.9,13.15-2.36,2.28,3.1,2.75,6.55,1.29,9.5-2.25,4.55-8.33,5.9-13.15,2.36-2.28-3.1-2.75-6.55-1.29-9.5Z"/>
                <path class="cls-2"
                      d="M281.41,286.72c-5.41,0-9.79,4.38-9.79,9.79s4.38,9.79,9.79,9.79c2.08,0,3.99-.66,5.58-1.76l18.54,18.54v46.02l-10.6,10.6c-1.91-1.41-4.25-2.27-6.8-2.27-6.36,0-11.53,5.17-11.53,11.53s5.17,11.53,11.53,11.53,11.53-5.17,11.53-11.53c0-2.55-.86-4.89-2.27-6.8l11.62-11.62v-48.9l-19.56-19.56c1.1-1.58,1.76-3.5,1.76-5.58,0-5.41-4.38-9.79-9.79-9.79ZM288.12,397.03c-4.44,0-8.05-3.61-8.05-8.05s3.61-8.06,8.05-8.06,8.06,3.61,8.06,8.06-3.61,8.05-8.06,8.05Z"/>
                <path class="cls-2"
                      d="M357.54,286.23c0-5.41-4.38-9.79-9.79-9.79s-9.79,4.38-9.79,9.79c0,4.81,3.48,8.8,8.05,9.62v67.83l16.67,16.66v29.08c-4.58.82-8.06,4.81-8.06,9.62,0,5.41,4.38,9.79,9.8,9.79s9.79-4.38,9.79-9.79c0-4.81-3.48-8.79-8.05-9.62v-30.52l-16.67-16.66v-66.39c4.57-.82,8.06-4.8,8.06-9.62Z"/>
                <path class="cls-2"
                      d="M175.3,411.7c-5.41,0-9.79,4.38-9.79,9.79s4.39,9.79,9.79,9.79c2.08,0,3.99-.66,5.58-1.76l14.58,14.58v44.54c-4.58.82-8.06,4.81-8.06,9.62,0,5.41,4.38,9.79,9.8,9.79s9.79-4.38,9.79-9.79c0-4.81-3.48-8.8-8.05-9.62v-45.98l-15.6-15.6c1.1-1.58,1.76-3.5,1.76-5.58,0-5.41-4.38-9.79-9.79-9.79Z"/>
                <path class="cls-2"
                      d="M121.39,614.79c-5.41,0-9.79,4.38-9.79,9.79s4.38,9.79,9.79,9.79c2.08,0,3.99-.66,5.58-1.76l95.48,95.49c-1.41,1.91-2.27,4.25-2.27,6.8,0,6.36,5.17,11.53,11.53,11.53s11.53-5.17,11.53-11.53-5.17-11.53-11.53-11.53c-2.55,0-4.89.86-6.8,2.27l-95.48-95.48c1.1-1.58,1.76-3.5,1.76-5.58,0-5.41-4.38-9.79-9.79-9.79ZM231.72,726.85c4.44,0,8.06,3.61,8.06,8.06s-3.61,8.06-8.06,8.06-8.05-3.61-8.05-8.06,3.61-8.06,8.05-8.06Z"/>
                <path class="cls-2"
                      d="M34.4,336.09c5.41,0,9.79-4.38,9.79-9.79s-4.39-9.79-9.79-9.79c-2.08,0-3.99.66-5.58,1.76l-12.68-12.68v-69.98c4.58-.82,8.05-4.8,8.05-9.62,0-5.41-4.38-9.79-9.79-9.79s-9.79,4.38-9.79,9.79c0,4.81,3.48,8.8,8.05,9.62v71.41l13.7,13.7c-1.1,1.58-1.76,3.5-1.76,5.58,0,5.41,4.38,9.79,9.79,9.79Z"/>
                <path class="cls-1"
                      d="M17.87,499.36c5.41,0,9.79-4.38,9.79-9.79s-4.38-9.79-9.79-9.79c-2.08,0-3.99.65-5.58,1.76l-27.82-27.82v-51.98c5.53-.85,9.79-5.59,9.79-11.36,0-6.36-5.17-11.53-11.53-11.53s-11.53,5.17-11.53,11.53c0,5.76,4.26,10.51,9.79,11.36v53.42l28.84,28.84c-1.1,1.58-1.76,3.5-1.76,5.58,0,5.41,4.38,9.79,9.79,9.79ZM-25.32,390.37c0-4.44,3.61-8.06,8.05-8.06s8.05,3.61,8.05,8.06-3.61,8.05-8.05,8.05-8.05-3.61-8.05-8.05Z"/>
                <path class="cls-2"
                      d="M578.18,467.74c4.58-.82,8.05-4.81,8.05-9.62,0-5.41-4.38-9.79-9.79-9.79s-9.79,4.38-9.79,9.79c0,4.81,3.48,8.8,8.06,9.62v88.35l-21.21,21.21c-1.91-1.41-4.25-2.27-6.81-2.27-6.36,0-11.53,5.17-11.53,11.53s5.17,11.53,11.53,11.53,11.53-5.17,11.53-11.53c0-2.55-.86-4.89-2.27-6.81l22.23-22.23v-89.79ZM546.68,594.63c-4.44,0-8.06-3.61-8.06-8.05s3.61-8.06,8.06-8.06,8.06,3.61,8.06,8.06-3.61,8.05-8.06,8.05Z"/>
                <path class="cls-2"
                      d="M499.74,618.11c5.41,0,9.79-4.38,9.79-9.79s-4.38-9.79-9.79-9.79-9.79,4.38-9.79,9.79c0,2.08.66,3.99,1.76,5.58l-26.99,26.99c-1.58-1.1-3.5-1.76-5.58-1.76-5.41,0-9.79,4.38-9.79,9.79s4.38,9.79,9.79,9.79,9.79-4.38,9.79-9.79c0-2.08-.66-3.99-1.76-5.58l26.99-26.99c1.59,1.1,3.5,1.76,5.58,1.76Z"/>
                <path class="cls-1"
                      d="M551.57-58.49V10.58l42.2-42.2c1.58,1.1,3.5,1.76,5.58,1.76,5.41,0,9.79-4.38,9.79-9.79s-4.38-9.79-9.79-9.79-9.79,4.38-9.79,9.79c0,2.08.66,3.99,1.76,5.58l-36.27,36.26v-60.67c4.58-.82,8.05-4.81,8.05-9.62,0-5.41-4.38-9.79-9.79-9.79s-9.79,4.38-9.79,9.79c0,4.81,3.48,8.8,8.06,9.62Z"/>
                <path class="cls-1"
                      d="M271.33-71.74c0,4.81,3.48,8.79,8.06,9.62V-18.05l27.2,27.2,40.24-40.24h0l.18-.19.33-.32h0l45.63-45.63v-68.38c4.54-.82,8-4.78,8-9.56,0-5.38-4.36-9.74-9.74-9.74s-9.74,4.36-9.74,9.74c0,4.78,3.45,8.74,8,9.56v66.94l-42.15,42.15v-77.48c4.57-.82,8.05-4.81,8.05-9.62,0-5.41-4.38-9.79-9.79-9.79s-9.79,4.38-9.79,9.79c0,4.81,3.48,8.79,8.06,9.62V-33.04l-37.27,37.27-23.72-23.72v-42.63c4.58-.82,8.05-4.81,8.05-9.62,0-5.41-4.38-9.79-9.79-9.79s-9.79,4.39-9.79,9.79Z"/>
                <path class="cls-2"
                      d="M116.4,67.77c6.36,0,11.53-5.17,11.53-11.53,0-5.76-4.26-10.51-9.79-11.36V13.25l41.16-41.16c1.58,1.1,3.5,1.76,5.58,1.76,5.41,0,9.79-4.38,9.79-9.79s-4.38-9.79-9.79-9.79-9.79,4.38-9.79,9.79c0,2.08.66,3.99,1.76,5.58L114.67,11.81v33.07c-5.53.85-9.79,5.59-9.79,11.36,0,6.36,5.17,11.53,11.53,11.53ZM116.4,48.18c4.44,0,8.05,3.61,8.05,8.06s-3.61,8.05-8.05,8.05-8.05-3.61-8.05-8.05,3.61-8.06,8.05-8.06Z"/>
                <path class="cls-2"
                      d="M422.93-27.53V60.58l-37.56,37.56V-1c4.55-.82,8-4.78,8-9.56,0-5.38-4.36-9.74-9.74-9.74s-9.74,4.36-9.74,9.74c0,4.78,3.45,8.74,8,9.56v99.13l-36.82-36.82V24.34c4.54-.82,8-4.78,8-9.56,0-5.38-4.36-9.74-9.74-9.74s-9.74,4.36-9.74,9.74c0,4.78,3.45,8.74,8,9.56v38.41l42.04,42.04,42.77-42.77V-27.53c4.54-.82,8-4.78,8-9.56,0-5.38-4.36-9.74-9.74-9.74s-9.74,4.36-9.74,9.74c0,4.78,3.45,8.74,8,9.56Z"/>
                <path class="cls-2"
                      d="M73.75,24.34v90.88l-61.93,61.94v-13.84c4.54-.82,8-4.78,8-9.56,0-5.38-4.36-9.74-9.74-9.74S.34,148.37.34,153.75c0,4.78,3.45,8.74,8,9.56v22.24l68.89-68.89V24.34c4.55-.82,8-4.78,8-9.56,0-5.38-4.36-9.74-9.74-9.74s-9.74,4.36-9.74,9.74c0,4.78,3.45,8.74,8,9.56Z"/>
                <path class="cls-1"
                      d="M-263.33,607.72l44.36-44.36h36.93l65.43,65.43H-13.72l32.12,32.13c-1.41,1.91-2.27,4.25-2.27,6.8,0,6.36,5.17,11.53,11.53,11.53s11.53-5.17,11.53-11.53-5.17-11.53-11.53-11.53c-2.55,0-4.89.86-6.8,2.27l-33.14-33.14h-102.88l-163.63-163.63c1.41-1.91,2.27-4.25,2.27-6.8,0-6.36-5.17-11.53-11.53-11.53s-11.53,5.17-11.53,11.53,5.17,11.53,11.53,11.53c2.55,0,4.89-.86,6.8-2.27l95.74,95.74h-66.33l-33.91-33.9c1.09-1.57,1.74-3.48,1.74-5.54,0-5.38-4.36-9.74-9.74-9.74s-9.74,4.36-9.74,9.74,4.36,9.74,9.74,9.74c2.06,0,3.97-.65,5.54-1.74l34.92,34.92h29.4l-41.9,41.9c-1.57-1.09-3.48-1.74-5.54-1.74-5.38,0-9.74,4.36-9.74,9.74s4.36,9.74,9.74,9.74,9.74-4.36,9.74-9.74c0-2.06-.65-3.96-1.74-5.54ZM27.66,659.66c4.44,0,8.06,3.61,8.06,8.06s-3.61,8.05-8.06,8.05-8.05-3.61-8.05-8.05,3.61-8.06,8.05-8.06ZM-288.06,462.93c-4.44,0-8.06-3.61-8.06-8.05s3.61-8.05,8.06-8.05,8.05,3.61,8.05,8.05-3.61,8.05-8.05,8.05Z"/>
                <path class="cls-2"
                      d="M993.54,840.53c-4.78,0-8.74,3.45-9.56,8h-55.55l-30.55-30.55,13.18-13.18c1.91,1.41,4.25,2.27,6.8,2.27,6.36,0,11.53-5.17,11.53-11.53s-5.17-11.53-11.53-11.53-11.53,5.17-11.53,11.53c0,2.55.86,4.89,2.27,6.8l-13.9,13.9h-106.87l-11.98,11.98h-69.55l21.98-21.98c1.58,1.09,3.48,1.74,5.54,1.74,5.38,0,9.74-4.36,9.74-9.74s-4.36-9.74-9.74-9.74-9.74,4.36-9.74,9.74c0,2.06.65,3.96,1.74,5.54l-24.44,24.44h-155.71l-127.2,127.2v358.82h3.48v-357.38l125.16-125.16h92.73l40.3,40.31h60l32.5,32.5c-1.09,1.58-1.74,3.48-1.74,5.54,0,5.38,4.36,9.74,9.74,9.74s9.74-4.36,9.74-9.74-4.36-9.74-9.74-9.74c-2.06,0-3.96.65-5.54,1.74l-33.52-33.52h-60l-36.83-36.83h131.09l29.55,29.55h73.86l17.98,17.98c-1.1,1.58-1.76,3.5-1.76,5.58,0,5.41,4.38,9.79,9.79,9.79s9.79-4.38,9.79-9.79-4.38-9.79-9.79-9.79c-2.08,0-3.99.66-5.58,1.76l-19-19h-73.86l-27.82-27.82,10.24-10.24h105.43l32.29,32.29h56.99c.82,4.55,4.78,8,9.56,8,5.38,0,9.74-4.36,9.74-9.74s-4.36-9.74-9.74-9.74ZM917.86,787.49c4.44,0,8.06,3.61,8.06,8.06s-3.61,8.05-8.06,8.05-8.05-3.61-8.05-8.05,3.61-8.06,8.05-8.06Z"/>
            </g>
        </g>
    </g>
</svg>
